<svg width="18" height="21" viewBox="0 0 18 21" fill="none" xmlns="http://www.w3.org/2000/svg">
<path d="M8.60263 10.1325L6.71151 10.7628C6.48359 10.8388 6.48359 11.1612 6.71151 11.2372L8.60263 11.8675C9.79705 12.2657 10.7343 13.2029 11.1325 14.3974L11.7628 16.2885C11.8388 16.5164 12.1612 16.5164 12.2372 16.2885L12.8675 14.3974C13.2657 13.2029 14.2029 12.2657 15.3974 11.8675L17.2885 11.2372C17.5164 11.1612 17.5164 10.8388 17.2885 10.7628L15.3974 10.1325C14.2029 9.73432 13.2657 8.79705 12.8675 7.60263L12.2372 5.71151C12.1612 5.48359 11.8388 5.48359 11.7628 5.71151L11.1325 7.60263C10.7343 8.79705 9.79705 9.73432 8.60263 10.1325Z" fill="white"/>
<path d="M1.5182 6.99393L0.415049 7.36165C0.282093 7.40597 0.282094 7.59403 0.415049 7.63835L1.5182 8.00607C2.21495 8.23832 2.76168 8.78505 2.99393 9.4818L3.36165 10.585C3.40597 10.7179 3.59403 10.7179 3.63835 10.585L4.00607 9.4818C4.23832 8.78505 4.78505 8.23832 5.4818 8.00607L6.58495 7.63835C6.71791 7.59403 6.71791 7.40597 6.58495 7.36165L5.4818 6.99393C4.78505 6.76168 4.23832 6.21495 4.00607 5.5182L3.63835 4.41505C3.59403 4.28209 3.40597 4.28209 3.36165 4.41505L2.99393 5.5182C2.76168 6.21495 2.21495 6.76168 1.5182 6.99393Z" fill="white"/>
</svg>
