<svg width="16" height="16" viewBox="0 0 16 16" fill="none" xmlns="http://www.w3.org/2000/svg">
<path fill-rule="evenodd" clip-rule="evenodd" d="M0 3.04545C0 1.3635 1.3635 0 3.04545 0H7.35999C7.63613 0 7.85999 0.223858 7.85999 0.5C7.85999 0.776142 7.63613 1 7.35999 1H3.04545C1.91578 1 1 1.91578 1 3.04545C1 4.17513 1.91578 5.09091 3.04545 5.09091H4.39653C4.93902 5.09091 5.45929 4.87541 5.84289 4.49181L9.4427 0.891993C10.0138 0.32086 10.7885 0 11.5962 0H13.2727C14.779 0 16 1.22104 16 2.72727C16 4.2335 14.779 5.45455 13.2727 5.45455H11.5962C11.0537 5.45455 10.5334 5.67005 10.1498 6.05365L6.54999 9.65346C6.1664 10.0371 5.95089 10.5573 5.95089 11.0998V11.9545C5.95089 13.0842 6.86668 14 7.99635 14C9.12602 14 10.0418 13.0842 10.0418 11.9545V8.13636C10.0418 7.86022 10.2657 7.63636 10.5418 7.63636C10.8179 7.63636 11.0418 7.86022 11.0418 8.13636V11.9545C11.0418 13.6365 9.67831 15 7.99635 15C6.31439 15 4.95089 13.6365 4.95089 11.9545V11.0998C4.95089 10.2921 5.27175 9.51749 5.84289 8.94635L9.4427 5.34654C10.0138 4.7754 10.7885 4.45455 11.5962 4.45455H13.2727C14.2267 4.45455 15 3.68122 15 2.72727C15 1.77333 14.2267 1 13.2727 1H11.5962C11.0537 1 10.5334 1.2155 10.1498 1.5991L6.54999 5.19892C5.97886 5.77005 5.20424 6.09091 4.39653 6.09091H3.04545C1.3635 6.09091 0 4.72741 0 3.04545Z" fill="#161616"/>
</svg>
